<mxfile host="app.diagrams.net" modified="2024-01-11T00:46:07.234Z" agent="Mozilla/5.0 (Windows NT 10.0; Win64; x64) AppleWebKit/537.36 (KHTML, like Gecko) Chrome/120.0.0.0 Safari/537.36 Edg/120.0.0.0" etag="ajCimreU0ecRowB9CrJo" version="22.1.18" type="github">
  <diagram name="Página-1" id="RNMoF_OnIda3Cw2BNOBb">
    <mxGraphModel dx="758" dy="389" grid="1" gridSize="10" guides="1" tooltips="1" connect="1" arrows="1" fold="1" page="1" pageScale="1" pageWidth="827" pageHeight="1169" math="0" shadow="0">
      <root>
        <mxCell id="0" />
        <mxCell id="1" parent="0" />
        <mxCell id="RKQrDpilRz8z7lB3Kckg-7" value="" style="edgeStyle=orthogonalEdgeStyle;rounded=0;orthogonalLoop=1;jettySize=auto;html=1;" edge="1" parent="1" source="RKQrDpilRz8z7lB3Kckg-1" target="RKQrDpilRz8z7lB3Kckg-6">
          <mxGeometry relative="1" as="geometry" />
        </mxCell>
        <mxCell id="RKQrDpilRz8z7lB3Kckg-1" value="INICIO" style="rounded=1;whiteSpace=wrap;html=1;" vertex="1" parent="1">
          <mxGeometry x="354" y="40" width="120" height="60" as="geometry" />
        </mxCell>
        <mxCell id="RKQrDpilRz8z7lB3Kckg-9" value="" style="edgeStyle=orthogonalEdgeStyle;rounded=0;orthogonalLoop=1;jettySize=auto;html=1;" edge="1" parent="1" source="RKQrDpilRz8z7lB3Kckg-6" target="RKQrDpilRz8z7lB3Kckg-8">
          <mxGeometry relative="1" as="geometry" />
        </mxCell>
        <mxCell id="RKQrDpilRz8z7lB3Kckg-6" value="PEGUE UMA PANELA" style="rounded=0;whiteSpace=wrap;html=1;" vertex="1" parent="1">
          <mxGeometry x="354" y="160" width="120" height="60" as="geometry" />
        </mxCell>
        <mxCell id="RKQrDpilRz8z7lB3Kckg-17" style="edgeStyle=orthogonalEdgeStyle;rounded=0;orthogonalLoop=1;jettySize=auto;html=1;entryX=0;entryY=0.5;entryDx=0;entryDy=0;" edge="1" parent="1" source="RKQrDpilRz8z7lB3Kckg-8" target="RKQrDpilRz8z7lB3Kckg-16">
          <mxGeometry relative="1" as="geometry" />
        </mxCell>
        <mxCell id="RKQrDpilRz8z7lB3Kckg-21" style="edgeStyle=orthogonalEdgeStyle;rounded=0;orthogonalLoop=1;jettySize=auto;html=1;" edge="1" parent="1" source="RKQrDpilRz8z7lB3Kckg-8" target="RKQrDpilRz8z7lB3Kckg-18">
          <mxGeometry relative="1" as="geometry" />
        </mxCell>
        <mxCell id="RKQrDpilRz8z7lB3Kckg-8" value="PARA UMA PESSOA?" style="rhombus;whiteSpace=wrap;html=1;rounded=0;" vertex="1" parent="1">
          <mxGeometry x="344" y="270" width="140" height="100" as="geometry" />
        </mxCell>
        <mxCell id="RKQrDpilRz8z7lB3Kckg-10" value="SIM" style="text;html=1;align=center;verticalAlign=middle;resizable=0;points=[];autosize=1;strokeColor=none;fillColor=none;" vertex="1" parent="1">
          <mxGeometry x="500" y="268" width="40" height="30" as="geometry" />
        </mxCell>
        <mxCell id="RKQrDpilRz8z7lB3Kckg-11" value="NÃO" style="text;html=1;align=center;verticalAlign=middle;resizable=0;points=[];autosize=1;strokeColor=none;fillColor=none;" vertex="1" parent="1">
          <mxGeometry x="280" y="268" width="50" height="30" as="geometry" />
        </mxCell>
        <mxCell id="RKQrDpilRz8z7lB3Kckg-25" style="edgeStyle=orthogonalEdgeStyle;rounded=0;orthogonalLoop=1;jettySize=auto;html=1;entryX=1;entryY=0.5;entryDx=0;entryDy=0;" edge="1" parent="1" source="RKQrDpilRz8z7lB3Kckg-16" target="RKQrDpilRz8z7lB3Kckg-22">
          <mxGeometry relative="1" as="geometry">
            <mxPoint x="620" y="490" as="targetPoint" />
            <Array as="points">
              <mxPoint x="620" y="480" />
            </Array>
          </mxGeometry>
        </mxCell>
        <mxCell id="RKQrDpilRz8z7lB3Kckg-16" value="PEGUE UM PACOTE DE MACARRÃO" style="rounded=0;whiteSpace=wrap;html=1;" vertex="1" parent="1">
          <mxGeometry x="560" y="290" width="120" height="60" as="geometry" />
        </mxCell>
        <mxCell id="RKQrDpilRz8z7lB3Kckg-27" style="edgeStyle=orthogonalEdgeStyle;rounded=0;orthogonalLoop=1;jettySize=auto;html=1;exitX=0.5;exitY=1;exitDx=0;exitDy=0;entryX=0;entryY=0.5;entryDx=0;entryDy=0;" edge="1" parent="1" source="RKQrDpilRz8z7lB3Kckg-18" target="RKQrDpilRz8z7lB3Kckg-22">
          <mxGeometry relative="1" as="geometry" />
        </mxCell>
        <mxCell id="RKQrDpilRz8z7lB3Kckg-18" value="&lt;font style=&quot;font-size: 10px;&quot;&gt;PEGUE A QUANTIDADE DE PACOTES DE MACARRÃO IGUAL AO NÚMERO DE PESSOAS&lt;/font&gt;" style="rounded=0;whiteSpace=wrap;html=1;" vertex="1" parent="1">
          <mxGeometry x="150" y="280" width="130" height="80" as="geometry" />
        </mxCell>
        <mxCell id="RKQrDpilRz8z7lB3Kckg-29" value="" style="edgeStyle=orthogonalEdgeStyle;rounded=0;orthogonalLoop=1;jettySize=auto;html=1;" edge="1" parent="1" source="RKQrDpilRz8z7lB3Kckg-22" target="RKQrDpilRz8z7lB3Kckg-28">
          <mxGeometry relative="1" as="geometry" />
        </mxCell>
        <mxCell id="RKQrDpilRz8z7lB3Kckg-22" value="SEPARE A PORÇÃO DE ÁGUA" style="whiteSpace=wrap;html=1;rounded=0;" vertex="1" parent="1">
          <mxGeometry x="354" y="457" width="120" height="60" as="geometry" />
        </mxCell>
        <mxCell id="RKQrDpilRz8z7lB3Kckg-39" value="" style="edgeStyle=orthogonalEdgeStyle;rounded=0;orthogonalLoop=1;jettySize=auto;html=1;" edge="1" parent="1" source="RKQrDpilRz8z7lB3Kckg-30" target="RKQrDpilRz8z7lB3Kckg-32">
          <mxGeometry relative="1" as="geometry" />
        </mxCell>
        <mxCell id="RKQrDpilRz8z7lB3Kckg-30" value="COLOQUE A PANELA NO FOGÃO" style="whiteSpace=wrap;html=1;rounded=0;" vertex="1" parent="1">
          <mxGeometry x="354" y="550" width="120" height="60" as="geometry" />
        </mxCell>
        <mxCell id="RKQrDpilRz8z7lB3Kckg-32" value="COLOQUE A PORÇÃO DE ÁGUA NA PANELA" style="whiteSpace=wrap;html=1;rounded=0;" vertex="1" parent="1">
          <mxGeometry x="354" y="645" width="120" height="60" as="geometry" />
        </mxCell>
        <mxCell id="RKQrDpilRz8z7lB3Kckg-41" value="" style="edgeStyle=orthogonalEdgeStyle;rounded=0;orthogonalLoop=1;jettySize=auto;html=1;" edge="1" parent="1" source="RKQrDpilRz8z7lB3Kckg-28" target="RKQrDpilRz8z7lB3Kckg-40">
          <mxGeometry relative="1" as="geometry" />
        </mxCell>
        <mxCell id="RKQrDpilRz8z7lB3Kckg-28" value="LIGUE O FOGÃO" style="whiteSpace=wrap;html=1;rounded=0;" vertex="1" parent="1">
          <mxGeometry x="354" y="739" width="120" height="60" as="geometry" />
        </mxCell>
        <mxCell id="RKQrDpilRz8z7lB3Kckg-46" value="" style="edgeStyle=orthogonalEdgeStyle;rounded=0;orthogonalLoop=1;jettySize=auto;html=1;" edge="1" parent="1" source="RKQrDpilRz8z7lB3Kckg-40" target="RKQrDpilRz8z7lB3Kckg-45">
          <mxGeometry relative="1" as="geometry" />
        </mxCell>
        <mxCell id="RKQrDpilRz8z7lB3Kckg-48" value="" style="edgeStyle=orthogonalEdgeStyle;rounded=0;orthogonalLoop=1;jettySize=auto;html=1;" edge="1" parent="1" source="RKQrDpilRz8z7lB3Kckg-40" target="RKQrDpilRz8z7lB3Kckg-47">
          <mxGeometry relative="1" as="geometry" />
        </mxCell>
        <mxCell id="RKQrDpilRz8z7lB3Kckg-40" value="A ÁGUA FERVEU?" style="rhombus;whiteSpace=wrap;html=1;rounded=0;" vertex="1" parent="1">
          <mxGeometry x="374" y="869" width="80" height="80" as="geometry" />
        </mxCell>
        <mxCell id="RKQrDpilRz8z7lB3Kckg-42" value="SIM" style="text;html=1;align=center;verticalAlign=middle;resizable=0;points=[];autosize=1;strokeColor=none;fillColor=none;" vertex="1" parent="1">
          <mxGeometry x="434" y="960" width="40" height="30" as="geometry" />
        </mxCell>
        <mxCell id="RKQrDpilRz8z7lB3Kckg-51" value="" style="edgeStyle=orthogonalEdgeStyle;rounded=0;orthogonalLoop=1;jettySize=auto;html=1;" edge="1" parent="1" source="RKQrDpilRz8z7lB3Kckg-45" target="RKQrDpilRz8z7lB3Kckg-50">
          <mxGeometry relative="1" as="geometry" />
        </mxCell>
        <mxCell id="RKQrDpilRz8z7lB3Kckg-45" value="COLOQUE O(S) PACOTE(S) DE MACARRÃO" style="whiteSpace=wrap;html=1;rounded=0;" vertex="1" parent="1">
          <mxGeometry x="354" y="1010" width="120" height="60" as="geometry" />
        </mxCell>
        <mxCell id="RKQrDpilRz8z7lB3Kckg-47" value="AGUARDE FERVURA" style="whiteSpace=wrap;html=1;rounded=0;" vertex="1" parent="1">
          <mxGeometry x="194" y="879" width="120" height="60" as="geometry" />
        </mxCell>
        <mxCell id="RKQrDpilRz8z7lB3Kckg-49" value="NÃO" style="text;html=1;align=center;verticalAlign=middle;resizable=0;points=[];autosize=1;strokeColor=none;fillColor=none;" vertex="1" parent="1">
          <mxGeometry x="335" y="848" width="50" height="30" as="geometry" />
        </mxCell>
        <mxCell id="RKQrDpilRz8z7lB3Kckg-53" value="" style="edgeStyle=orthogonalEdgeStyle;rounded=0;orthogonalLoop=1;jettySize=auto;html=1;" edge="1" parent="1" source="RKQrDpilRz8z7lB3Kckg-50" target="RKQrDpilRz8z7lB3Kckg-52">
          <mxGeometry relative="1" as="geometry" />
        </mxCell>
        <mxCell id="RKQrDpilRz8z7lB3Kckg-50" value="AGUARDE 3 MINUTOS" style="whiteSpace=wrap;html=1;rounded=0;" vertex="1" parent="1">
          <mxGeometry x="354" y="1100" width="120" height="60" as="geometry" />
        </mxCell>
        <mxCell id="RKQrDpilRz8z7lB3Kckg-55" value="" style="edgeStyle=orthogonalEdgeStyle;rounded=0;orthogonalLoop=1;jettySize=auto;html=1;" edge="1" parent="1" source="RKQrDpilRz8z7lB3Kckg-52" target="RKQrDpilRz8z7lB3Kckg-54">
          <mxGeometry relative="1" as="geometry" />
        </mxCell>
        <mxCell id="RKQrDpilRz8z7lB3Kckg-52" value="DESLIGUE O FOGÃO" style="whiteSpace=wrap;html=1;rounded=0;" vertex="1" parent="1">
          <mxGeometry x="354" y="1190" width="120" height="60" as="geometry" />
        </mxCell>
        <mxCell id="RKQrDpilRz8z7lB3Kckg-56" style="edgeStyle=orthogonalEdgeStyle;rounded=0;orthogonalLoop=1;jettySize=auto;html=1;" edge="1" parent="1" source="RKQrDpilRz8z7lB3Kckg-54">
          <mxGeometry relative="1" as="geometry">
            <mxPoint x="570" y="1310" as="targetPoint" />
          </mxGeometry>
        </mxCell>
        <mxCell id="RKQrDpilRz8z7lB3Kckg-54" value="COLOQUE O TEMPERO" style="whiteSpace=wrap;html=1;rounded=0;" vertex="1" parent="1">
          <mxGeometry x="354" y="1280" width="120" height="60" as="geometry" />
        </mxCell>
        <mxCell id="RKQrDpilRz8z7lB3Kckg-57" value="FIM" style="rounded=1;whiteSpace=wrap;html=1;" vertex="1" parent="1">
          <mxGeometry x="570" y="1280" width="120" height="60" as="geometry" />
        </mxCell>
      </root>
    </mxGraphModel>
  </diagram>
</mxfile>
